# xmcd
#
# Track frame offsets: 
#        150
#        10907
#        29498
#        38501
#        52598
#        71620
#        88797
#        105102
#        124379
#        128580
#        140767
#        152977
#        168923
#        182174
#        205252
#        220293
#        240483
#        254985
#        271027
#        294360
#        307836
#        321715
#
# Disc length: 4717 seconds
#
# Revision: 0
# Processed by: cddbd v1.5.2PL0 Copyright (c) Steve Scherf et al.
# Submitted via: ExactAudioCopy v0.95b4
#
DISCID=3b126b16
DTITLE=Bob Dylan - The Bootleg Series Volume 1 [Sampler]
DYEAR=1991
DGENRE=Folk
TTITLE0=Hard Times In New York Town
TTITLE1=He Was A Friend Of Mine
TTITLE2=Man On The Street
TTITLE3=No More Auction Block
TTITLE4=House Carpenter
TTITLE5=Talkin' Bear Mountain Picnic Massacre Blues
TTITLE6=Let Me Die In My Footsteps
TTITLE7=Rambling, Gambling Willie
TTITLE8=Talkin' Hava Negeilah Blues
TTITLE9=Quit Your Low Down Ways
TTITLE10=Worried Blues
TTITLE11=Kingsport Town
TTITLE12=Walkin' Down The Line
TTITLE13=Walls Of Red Wing
TTITLE14=Paths of Victory
TTITLE15=Talkin' John Birch Paranoid Blues
TTITLE16=Who Killed Davey Moore
TTITLE17=Only A Hobo
TTITLE18=Moonshiner
TTITLE19=When the Ship Comes In
TTITLE20=The Times They Are A-Changin'
TTITLE21=Last Thought on Woody Guthrie
EXTD=
EXTT0=
EXTT1=
EXTT2=
EXTT3=
EXTT4=
EXTT5=
EXTT6=
EXTT7=
EXTT8=
EXTT9=
EXTT10=
EXTT11=
EXTT12=
EXTT13=
EXTT14=
EXTT15=
EXTT16=
EXTT17=
EXTT18=
EXTT19=
EXTT20=
EXTT21=
PLAYORDER=
